<svg width="55" height="56" viewBox="0 0 55 56" fill="none" xmlns="http://www.w3.org/2000/svg">
<path d="M12.595 6.6371C12.8237 6.8364 12.9801 7.10576 13.0398 7.4032C13.0995 7.70065 13.0591 8.00948 12.925 8.2816C12.9006 8.3618 12.8885 8.44526 12.8892 8.5291C12.8892 8.70235 12.9333 9.03235 13.3485 9.44485C13.5493 9.6456 13.7032 9.7886 13.871 9.94535C14.0085 10.0718 14.1543 10.2038 14.3385 10.3853C14.696 10.7263 15.0728 11.1278 15.411 11.6311C16.1123 12.6843 16.5 14.0016 16.5 15.9183C16.5 19.9608 13.8132 22.7933 11 22.7933C8.18675 22.7933 5.5 19.9608 5.5 15.9183C5.5 15.0218 5.73925 13.9521 6.06925 12.9648C6.39925 11.9776 6.86125 10.9518 7.39475 10.1268C8.03 9.05435 8.92375 8.1551 9.61675 7.5501C9.99808 7.21763 10.3945 6.90288 10.8047 6.60685L10.9258 6.52435C11.1779 6.35626 11.4785 6.27618 11.7809 6.29657C12.0833 6.31696 12.3677 6.43667 12.595 6.6371ZM11 25.5433C12.6816 25.541 14.3118 24.9636 15.62 23.9071C15.7502 24.2939 15.8602 24.6835 15.95 25.0758C16.5 27.4683 16.5 30.3449 16.5 32.3496V32.4183C16.5 40.0826 15.4578 44.4303 14.311 46.9163C13.7335 48.1676 13.1203 48.9651 12.5895 49.4656C12.3734 49.6723 12.1355 49.8549 11.88 50.0101C11.7628 50.0805 11.6406 50.1421 11.5142 50.1944C11.5142 50.1944 11.2035 50.2934 11 50.2934C10.7965 50.2934 10.4857 50.1944 10.4857 50.1944C10.3594 50.1421 10.2372 50.0805 10.12 50.0101C9.86447 49.8549 9.62657 49.6723 9.4105 49.4656C8.87975 48.9623 8.2665 48.1676 7.689 46.9163C6.54225 44.4303 5.5 40.0826 5.5 32.4183V32.3496C5.5 30.3421 5.5 27.4683 6.05 25.0758C6.13983 24.6835 6.24983 24.2939 6.38 23.9071C7.68824 24.9636 9.31843 25.541 11 25.5433ZM24.75 36.5434C22.7838 36.5434 20.911 36.1308 19.2225 35.3883C19.2592 34.4093 19.2775 33.3918 19.2775 32.3358C20.9432 33.291 22.8299 33.7935 24.75 33.7933V28.2933C24.75 26.8347 25.3295 25.4357 26.3609 24.4043C27.3924 23.3728 28.7913 22.7933 30.25 22.7933H35.75C35.7503 20.8401 35.2304 18.922 34.2439 17.2361C33.2574 15.5503 31.8398 14.1576 30.1367 13.201C28.4337 12.2445 26.5067 11.7587 24.5537 11.7936C22.6008 11.8284 20.6923 12.3827 19.0245 13.3993C18.8531 12.4766 18.5395 11.586 18.095 10.7593C20.1885 9.60144 22.5478 9.00979 24.94 9.04284C27.3321 9.0759 29.6742 9.73252 31.7349 10.9478C33.7956 12.1631 35.5035 13.8951 36.69 15.9725C37.8764 18.0499 38.5003 20.401 38.5 22.7933H44C45.4587 22.7933 46.8576 23.3728 47.8891 24.4043C48.9205 25.4357 49.5 26.8347 49.5 28.2933V42.0434C49.5 43.502 48.9205 44.901 47.8891 45.9324C46.8576 46.9639 45.4587 47.5434 44 47.5434H30.25C28.7913 47.5434 27.3924 46.9639 26.3609 45.9324C25.3295 44.901 24.75 43.502 24.75 42.0434V36.5434ZM38.225 25.5433C37.6828 28.1843 36.3776 30.6081 34.4712 32.5145C32.5648 34.4209 30.141 35.7261 27.5 36.2683V42.0434C27.5 42.7727 27.7897 43.4722 28.3055 43.9879C28.8212 44.5036 29.5207 44.7934 30.25 44.7934H44C44.7293 44.7934 45.4288 44.5036 45.9445 43.9879C46.4603 43.4722 46.75 42.7727 46.75 42.0434V28.2933C46.75 27.564 46.4603 26.8645 45.9445 26.3488C45.4288 25.8331 44.7293 25.5433 44 25.5433H38.225ZM35.4035 25.5433H30.25C29.5207 25.5433 28.8212 25.8331 28.3055 26.3488C27.7897 26.8645 27.5 27.564 27.5 28.2933V33.4468C29.4021 32.9532 31.1377 31.9602 32.5273 30.5706C33.9168 29.1811 34.9098 27.4454 35.4035 25.5433Z" fill="#D2B94E"/>
</svg>
