<svg width="55" height="56" viewBox="0 0 55 56" fill="none" xmlns="http://www.w3.org/2000/svg">
<path d="M13.75 25.6489L6.875 21.7278V13.8835L13.75 9.96012L20.625 13.8835V21.7278L13.75 25.6489ZM13.75 23.0226L18.3333 20.4147V15.1966L13.75 12.5864L9.16667 15.1966V20.4147L13.75 23.0226ZM37.2854 25.8391V23.1991L43.5417 26.8405V41.5599L30.9375 48.9185L18.3333 41.5576V26.8405L24.5896 23.1991V25.8391L20.625 28.1537V40.2514L30.9375 46.2326L41.25 40.2514V28.1514L37.2854 25.8391ZM29.7917 32.8768V7.66846H48.125L44.3346 13.3976L48.125 19.1268H32.0833V32.8768H29.7917Z" fill="#D2B94E"/>
</svg>
